<svg id="visual" viewBox="0 0 1440 900" width="1440" height="900" xmlns="http://www.w3.org/2000/svg" xmlns:xlink="http://www.w3.org/1999/xlink" version="1.1"><g transform="translate(736.4758159788055 407.7914169139284)"><path d="M170 -255.4C212.5 -237.3 233.6 -176.8 269.3 -117.5C305.1 -58.1 355.5 0.1 364.8 64.4C374.1 128.6 342.4 198.9 295.8 261C249.2 323 187.9 376.9 125.1 369.6C62.3 362.4 -2 293.9 -79.7 271.2C-157.5 248.5 -248.8 271.6 -310.3 244.5C-371.9 217.3 -403.7 140 -398.9 67.2C-394 -5.6 -352.6 -73.8 -315.6 -139.7C-278.6 -205.5 -246.1 -268.9 -194.2 -282.7C-142.4 -296.5 -71.2 -260.8 -3.7 -255C63.8 -249.3 127.6 -273.5 170 -255.4" fill="#AFD3DB"></path></g></svg>