<svg id="visual" viewBox="0 0 900 600" width="900" height="600" xmlns="http://www.w3.org/2000/svg" xmlns:xlink="http://www.w3.org/1999/xlink" version="1.1"><path d="M0 445L18.8 451.5C37.7 458 75.3 471 112.8 473C150.3 475 187.7 466 225.2 463.7C262.7 461.3 300.3 465.7 337.8 472.7C375.3 479.7 412.7 489.3 450.2 488.2C487.7 487 525.3 475 562.8 469.7C600.3 464.3 637.7 465.7 675.2 463C712.7 460.3 750.3 453.7 787.8 454.8C825.3 456 862.7 465 881.3 469.5L900 474L900 601L881.3 601C862.7 601 825.3 601 787.8 601C750.3 601 712.7 601 675.2 601C637.7 601 600.3 601 562.8 601C525.3 601 487.7 601 450.2 601C412.7 601 375.3 601 337.8 601C300.3 601 262.7 601 225.2 601C187.7 601 150.3 601 112.8 601C75.3 601 37.7 601 18.8 601L0 601Z" fill="#1B3654" stroke-linecap="round" stroke-linejoin="miter"></path></svg>